<svg version="1.1" id="icon-link" xmlns="http://www.w3.org/2000/svg" xmlns:xlink="http://www.w3.org/1999/xlink" x="0px" y="0px" width="20px" height="20px" viewBox="0 0 53.8 53.8" style="enable-background:new 0 0 53.8 53.8" xml:space="preserve" aria-labelledby="link-title" role="img">
  <title id="link-title">Copy url</title>
<path d="M23.6,43.4c-3.6,3.6-9.5,3.6-13.2,0s-3.6-9.5,0-13.2l7-6.9c2.3-2.3,6.2-2.3,8.5,0c1.5,1.5,3.9,1.5,5.4,0
  c1.5-1.5,1.5-3.9,0-5.4c-5.3-5.3-14-5.3-19.4,0l-7,6.9c-6.6,6.6-6.6,17.4,0,24c3.3,3.3,7.7,5,12,5s8.7-1.7,12-5
  c1.5-1.5,1.5-3.9,0-5.4C27.5,41.9,25.1,41.9,23.6,43.4z M48.9,5c-6.6-6.6-17.4-6.6-24,0c-1.5,1.5-1.5,3.9,0,5.4
  c1.5,1.5,3.9,1.5,5.4,0c3.6-3.6,9.5-3.6,13.2,0s3.6,9.5,0,13.2l-7,6.9c-2.3,2.4-6.2,2.4-8.5,0c-1.5-1.5-3.9-1.5-5.4,0
  c-1.5,1.5-1.5,3.9,0,5.4c2.7,2.7,6.2,4,9.7,4c3.5,0,7-1.3,9.7-4l6.9-6.9C55.5,22.4,55.5,11.6,48.9,5z"></path>
</svg>