<svg version="1.1" id="icon-logo" xmlns="http://www.w3.org/2000/svg" xmlns:xlink="http://www.w3.org/1999/xlink" x="0px" y="0px" height="32" width="157" viewBox="0 0 157 32" aria-labelledby="logo-title" role="img">
  <title id="logo-title">Experience magazine</title>

  <path class="icon-color" d="M13.9,15.5c0-0.2,0.1-0.5,0.1-0.8c0-1.2-0.3-2.3-0.8-3.3c-0.5-1-1.2-1.7-2.2-2.2c-1-0.5-2.2-0.8-3.5-0.8 c-1.5,0-2.9,0.3-4,1c-1.1,0.7-2,1.6-2.6,2.8C0.3,13.4,0,14.8,0,16.3c0,1.5,0.3,2.9,0.9,4.1c0.6,1.2,1.4,2.1,2.5,2.8 c1.1,0.7,2.5,1,4,1c1.7-0.1,3.2-0.5,4.3-1.4c1.1-0.9,1.8-2.1,2.1-3.6l-0.1,0c-0.4,0.7-1,1.3-1.8,1.7c-0.8,0.4-1.7,0.6-2.7,0.6 c-1.6,0-2.8-0.5-3.5-1.5c-0.7-1-1-2.5-1-4.5v-0.1H13.9z M4.6,14.4v-1.2c0-1.3,0.2-2.2,0.6-2.9c0.4-0.6,1-0.9,2-0.9 c0.8,0,1.4,0.3,1.7,0.7c0.3,0.5,0.5,1.3,0.5,2.4v1.9H4.6z"></path>

  <path class="icon-color" d="M23.3,24.4h8.1v0c-0.6-0.6-1.1-1.3-1.5-1.8c-0.4-0.5-0.8-1.2-1.3-2l-3.5-5.8l2-2.7c0.6-0.7,1.1-1.4,1.6-1.9 C29.2,9.7,30,9,31,8.1v0h-5.1v0c0.6,0.5,1,1,1.3,1.3c0.2,0.4,0.4,0.7,0.4,1.1c0,0.2-0.1,0.3-0.3,0.5c-0.1,0.2-0.3,0.4-0.6,0.8 l-1.9,2.6l-2.2-3.5c-0.2-0.3-0.3-0.5-0.4-0.8c-0.1-0.2-0.1-0.4-0.1-0.6c0-0.5,0.3-1,0.8-1.4v0h-8.2v0c0.6,0.7,1.1,1.3,1.5,1.8 c0.4,0.5,0.8,1.2,1.3,2l3.3,5.4l-2.3,3.1c-0.5,0.7-1.1,1.4-1.6,1.9c-0.5,0.5-1.3,1.3-2.4,2.2v0h5.1v0c-0.6-0.5-1-1-1.3-1.4 s-0.3-0.5-0.3-0.8c0-0.2,0.1-0.5,0.2-0.7c0.1-0.2,0.3-0.5,0.6-0.9l2.2-2.9l2.4,3.8c0.2,0.3,0.3,0.5,0.4,0.8C24,22.6,24,22.8,24,23 C24,23.5,23.7,24,23.3,24.4L23.3,24.4L23.3,24.4z"></path>

  <path class="icon-color" d="M48.7,11.5c-0.6-1.2-1.3-2.2-2.3-2.9c-0.9-0.7-2-1-3.3-1c-1.8,0-3.3,0.7-4.6,2.3L38.5,8H32v0 c0.4,0.4,0.7,0.8,1,1.1c0.2,0.3,0.4,0.5,0.4,0.8c0.1,0.3,0.1,0.6,0.1,1.1v16.2c0,0.4,0,0.7-0.1,1c-0.1,0.3-0.2,0.5-0.4,0.8 c-0.2,0.3-0.5,0.6-0.9,1v0h7.9v-0.1c-0.6-0.6-1-1-1.1-1.4c-0.2-0.4-0.3-0.8-0.3-1.4v-2.8c0.8,0.3,1.7,0.5,2.7,0.5 c1.6,0,3-0.4,4.3-1.1c1.2-0.7,2.2-1.8,2.8-3.2c0.7-1.4,1-3,1-4.8C49.5,14.1,49.2,12.7,48.7,11.5z M43.5,20.8 c-0.2,1.1-0.6,1.8-1.1,2.2c-0.5,0.4-1.2,0.6-2,0.6c-0.6,0-1.3-0.1-1.8-0.3V10.7c0.6-0.6,1.4-0.8,2.3-0.8c0.8,0,1.4,0.2,1.8,0.7 c0.4,0.5,0.7,1.2,0.9,2.2c0.2,1,0.3,2.1,0.3,3.7C43.8,18.4,43.7,19.7,43.5,20.8z"></path>

  <path d="M65.8,15.3c0-0.2,0.1-0.5,0.1-0.8c0-1.3-0.3-2.4-0.8-3.3s-1.3-1.7-2.3-2.3c-1-0.5-2.2-0.8-3.6-0.8 c-1.6,0-2.9,0.3-4.1,1c-1.2,0.7-2,1.6-2.6,2.9c-0.6,1.2-0.9,2.6-0.9,4.2c0,1.6,0.3,2.9,0.9,4.2c0.6,1.2,1.4,2.2,2.6,2.9 c1.1,0.7,2.5,1,4.1,1c1.8-0.1,3.2-0.5,4.4-1.4c1.1-0.9,1.9-2.1,2.2-3.6l-0.1,0c-0.5,0.8-1.1,1.3-1.9,1.8c-0.8,0.4-1.7,0.6-2.8,0.6 c-1.7,0-2.9-0.5-3.6-1.6c-0.7-1-1.1-2.6-1.1-4.6v-0.1H65.8z M56.3,14.1v-1.2c0-1.3,0.2-2.3,0.6-2.9c0.4-0.7,1-1,2-1 c0.9,0,1.5,0.3,1.8,0.8c0.3,0.5,0.5,1.3,0.5,2.4v1.9H56.3z"></path>

  <path d="M73.8,10.4L73.7,8h-6.4v0c0.4,0.4,0.7,0.8,0.9,1.1c0.2,0.3,0.3,0.5,0.4,0.8c0.1,0.3,0.1,0.6,0.1,1.1v10.6 c0,0.5-0.1,1-0.3,1.4c-0.2,0.4-0.5,0.8-1.1,1.4v0h8v0c-0.5-0.4-0.8-0.7-1-1c-0.2-0.3-0.4-0.5-0.4-0.8c-0.1-0.3-0.1-0.6-0.1-1V11.2 c0.2-0.1,0.3-0.2,0.5-0.3c0.2-0.1,0.4-0.1,0.7-0.1c0.5,0,1.1,0.1,1.8,0.4c0.7,0.2,1.8,0.7,3.2,1.4h0V8.2c-0.2-0.2-0.5-0.4-0.9-0.5 c-0.3-0.1-0.7-0.2-1-0.2c-0.8,0-1.5,0.1-2.2,0.6C75.2,8.8,74.6,9.2,73.8,10.4"></path>

  <path d="M88.2,23c-0.2-0.4-0.3-0.8-0.3-1.4V8h-6.6v0c0.4,0.4,0.7,0.8,0.9,1.1c0.2,0.3,0.3,0.5,0.4,0.8 c0.1,0.3,0.1,0.6,0.1,1.1v10.6c0,0.5-0.1,1-0.3,1.4c-0.2,0.4-0.5,0.8-1.1,1.4v0h7.9v0C88.7,23.8,88.3,23.3,88.2,23"></path>

  <path class="icon-color" d="M85.3,5.6c1.6,0,2.8-1.3,2.8-2.8S86.9,0,85.3,0c-1.6,0-2.9,1.3-2.9,2.8S83.7,5.6,85.3,5.6"></path>

  <path d="M105.4,15.3c0-0.2,0.1-0.5,0.1-0.8c0-1.3-0.3-2.4-0.8-3.3s-1.3-1.7-2.3-2.3c-1-0.5-2.2-0.8-3.6-0.8 c-1.6,0-2.9,0.3-4.1,1c-1.2,0.7-2,1.6-2.6,2.9c-0.6,1.2-0.9,2.6-0.9,4.2c0,1.6,0.3,2.9,0.9,4.2c0.6,1.2,1.4,2.2,2.6,2.9 c1.1,0.7,2.5,1,4.1,1c1.8-0.1,3.2-0.5,4.4-1.4c1.1-0.9,1.9-2.1,2.2-3.6l-0.1,0c-0.5,0.8-1.1,1.3-1.9,1.8c-0.8,0.4-1.7,0.6-2.8,0.6 c-1.7,0-2.9-0.5-3.6-1.6c-0.7-1-1.1-2.6-1.1-4.6v-0.1H105.4z M95.9,14.1v-1.2c0-1.3,0.2-2.3,0.6-2.9c0.4-0.7,1-1,2-1 c0.9,0,1.5,0.3,1.8,0.8c0.3,0.5,0.5,1.3,0.5,2.4v1.9H95.9z"></path>

  <path d="M123.5,23c-0.2-0.4-0.3-0.8-0.3-1.4v-9c0-1.6-0.4-2.8-1.3-3.7s-2.1-1.3-3.7-1.3c-1.1,0-2.1,0.3-2.9,0.7 c-0.8,0.5-1.5,1.2-1.9,2L113.3,8h-6.4v0c0.4,0.4,0.7,0.8,0.9,1.1c0.2,0.3,0.3,0.5,0.4,0.8c0.1,0.3,0.1,0.6,0.1,1.1v10.6 c0,0.5-0.1,1-0.3,1.4c-0.2,0.4-0.5,0.8-1.1,1.4v0h7.8v0c-0.5-0.6-0.9-1-1.1-1.4c-0.2-0.4-0.3-0.8-0.3-1.4V11.2 c0.7-0.7,1.5-1.6,2.5-1.6c0.8,0,1.4,0.2,1.7,0.7c0.4,0.5,0.5,1.1,0.5,1.9v9.4c0,0.6-0.1,1-0.3,1.4c-0.2,0.4-0.5,0.8-1,1.4v0h7.8v0 C124.1,23.8,123.7,23.3,123.5,23"></path>

  <path d="M139.4,11.2L139.4,11.2l0-3c-0.8-0.2-1.8-0.3-2.7-0.5c-1-0.1-1.8-0.2-2.6-0.2c-1.8,0-3.4,0.4-4.6,1.1 c-1.3,0.7-2.2,1.7-2.8,3c-0.6,1.3-0.9,2.8-0.9,4.5c0,1.6,0.3,3.1,0.8,4.4c0.6,1.3,1.4,2.3,2.6,3c1.1,0.7,2.5,1.1,4.1,1.1 c1.2,0,2.2-0.2,3.2-0.6c0.9-0.4,1.7-1,2.3-1.8s1-1.7,1.1-2.7l0-0.1c-0.9,1.6-2.4,2.5-4.4,2.5c-1.1,0-2-0.3-2.7-0.8 c-0.6-0.5-1.1-1.3-1.4-2.4c-0.3-1.1-0.4-2.5-0.4-4.2c0-1.6,0.1-2.3,0.3-3.3c0.2-1,0.5-1.7,0.9-2.2s1-0.7,1.7-0.7 c0.4,0,1.4,0.3,1.7,0.4c1.2,0.5,0.3,0.1,1.6,0.7C137.9,10,138,10.2,139.4,11.2"></path>

  <path d="M154.9,15.3c0-0.2,0.1-0.5,0.1-0.8c0-1.3-0.3-2.4-0.8-3.3c-0.5-1-1.3-1.7-2.3-2.3S149.7,8,148.3,8 c-1.6,0-2.9,0.3-4.1,1c-1.2,0.7-2,1.6-2.6,2.9c-0.6,1.2-0.9,2.6-0.9,4.2c0,1.6,0.3,2.9,0.9,4.2c0.6,1.2,1.4,2.2,2.6,2.9 c1.1,0.7,2.5,1,4.1,1c1.8-0.1,3.2-0.5,4.4-1.4c1.1-0.9,1.9-2.1,2.2-3.6l-0.1,0c-0.5,0.8-1.1,1.3-1.9,1.8c-0.8,0.4-1.7,0.6-2.8,0.6 c-1.7,0-2.9-0.5-3.6-1.6c-0.7-1-1.1-2.6-1.1-4.6v-0.1H154.9z M145.4,14.1v-1.2c0-1.3,0.2-2.3,0.6-2.9c0.4-0.7,1-1,2-1 c0.9,0,1.5,0.3,1.8,0.8c0.3,0.5,0.5,1.3,0.5,2.4v1.9H145.4z"></path>
</svg>