<?xml version="1.0" encoding="utf-8"?>
<!-- Generator: Adobe Illustrator 22.1.0, SVG Export Plug-In . SVG Version: 6.00 Build 0)  -->
<svg version="1.1" id="Layer_1" xmlns="http://www.w3.org/2000/svg" xmlns:xlink="http://www.w3.org/1999/xlink" x="0px" y="0px"
	 viewBox="0 0 150 28.5" style="enable-background:new 0 0 150 28.5;" xml:space="preserve">
<style type="text/css">
	.st0{fill:#E05B43;}
	.st1{fill:#393834;}
</style>
<path class="st0" d="M7.7,23.6c-1.6,0-3-0.3-4.2-1c-1.1-0.7-2-1.7-2.6-2.9C0.3,18.4,0,17,0,15.4c0-1.6,0.3-3,0.9-4.2
	C1.5,10,2.4,9,3.6,8.3c1.2-0.7,2.5-1.1,4.1-1.1c1.4,0,2.6,0.3,3.7,0.8c1,0.6,1.8,1.3,2.3,2.3c0.5,1,0.8,2.1,0.8,3.4
	c0,0.3,0,0.6-0.1,0.8H4.8v0.1c0,2,0.4,3.6,1.1,4.6c0.7,1.1,1.9,1.6,3.6,1.6c1.1,0,2-0.2,2.8-0.6c0.8-0.4,1.4-1,1.9-1.8l0.1,0
	c-0.3,1.5-1,2.8-2.2,3.7C11,23.1,9.5,23.6,7.7,23.6z M4.8,12.5v1.9h4.9v-2.8c0-1.4-0.2-2.5-0.5-3.1c-0.3-0.7-0.9-1-1.8-1
	c-1,0-1.7,0.4-2,1.3C5,9.6,4.8,10.8,4.8,12.5z"/>
<path class="st0" d="M23,23.2c0.5-0.4,0.7-0.9,0.7-1.3c0-0.2,0-0.4-0.1-0.6c-0.1-0.2-0.2-0.4-0.4-0.7l-2.4-3.9l-2.1,2.7
	c-0.3,0.4-0.4,0.7-0.6,0.9c-0.1,0.2-0.2,0.4-0.2,0.6c0,0.4,0.1,0.7,0.3,1c0.2,0.3,0.6,0.8,1.2,1.3v0h-4.8v0c1-0.9,1.8-1.6,2.3-2.1
	c0.5-0.5,1-1.1,1.5-1.8l2.2-2.9l-3.1-5.1c-0.5-0.7-0.9-1.4-1.3-1.9c-0.4-0.5-0.8-1.1-1.4-1.7v0h7.7v0C22.2,8,21.9,8.5,21.9,9
	c0,0.2,0,0.4,0.1,0.6c0.1,0.2,0.2,0.4,0.4,0.7l2.2,3.5l1.8-2.4c0.3-0.4,0.4-0.6,0.6-0.9c0.1-0.2,0.2-0.4,0.2-0.6
	c0-0.4-0.1-0.7-0.3-1s-0.6-0.8-1.2-1.3v0h4.8v0c-1,0.9-1.8,1.6-2.2,2.1c-0.5,0.5-1,1.1-1.5,1.8l-1.9,2.6l3.3,5.5
	c0.5,0.8,0.9,1.4,1.3,1.9c0.4,0.5,0.8,1.1,1.4,1.7v0L23,23.2L23,23.2z"/>
<path class="st0" d="M47.1,10.9c0.5,1.2,0.7,2.5,0.7,4c0,1.7-0.3,3.2-1,4.5c-0.6,1.3-1.5,2.3-2.7,3c-1.2,0.7-2.5,1.1-4,1.1
	c-0.9,0-1.8-0.1-2.6-0.4v2.7c0,0.5,0.1,1,0.3,1.3c0.2,0.3,0.5,0.8,1.1,1.3v0h-7.5v0c0.4-0.4,0.7-0.7,0.9-0.9
	c0.2-0.3,0.3-0.5,0.4-0.8c0.1-0.2,0.1-0.6,0.1-0.9V10.4c0-0.4,0-0.7-0.1-1c-0.1-0.3-0.2-0.5-0.4-0.8c-0.2-0.3-0.5-0.6-0.9-1v0h6.1
	l0.1,1.8c1.2-1.4,2.6-2.2,4.3-2.2c1.2,0,2.2,0.3,3.1,1C45.9,8.8,46.6,9.7,47.1,10.9z M42.2,20.3c0.2-1.1,0.3-2.6,0.3-4.6
	c0-1.7-0.1-3-0.3-4c-0.2-1-0.5-1.7-0.9-2.2c-0.4-0.5-1-0.7-1.7-0.7c-0.8,0-1.6,0.3-2.2,0.9v13.2c0.6,0.2,1.2,0.3,1.8,0.3
	c0.8,0,1.4-0.2,1.9-0.6C41.7,22.1,42,21.4,42.2,20.3z"/>
<path class="st1" d="M57,23.6c-1.6,0-3-0.3-4.2-1c-1.1-0.7-2-1.7-2.6-2.9c-0.6-1.2-0.9-2.6-0.9-4.2c0-1.6,0.3-3,0.9-4.2
	c0.6-1.2,1.5-2.2,2.6-2.9c1.2-0.7,2.5-1.1,4.1-1.1c1.4,0,2.6,0.3,3.7,0.8c1,0.6,1.8,1.3,2.3,2.3c0.5,1,0.8,2.1,0.8,3.4
	c0,0.3,0,0.6-0.1,0.8h-9.5v0.1c0,2,0.4,3.6,1.1,4.6c0.7,1.1,1.9,1.6,3.6,1.6c1.1,0,2-0.2,2.8-0.6c0.8-0.4,1.4-1,1.9-1.8l0.1,0
	c-0.3,1.5-1,2.8-2.2,3.7C60.3,23.1,58.8,23.6,57,23.6z M54.2,12.5v1.9h4.9v-2.8c0-1.4-0.2-2.5-0.5-3.1c-0.3-0.7-0.9-1-1.8-1
	c-1,0-1.7,0.4-2,1.3C54.4,9.6,54.2,10.8,54.2,12.5z"/>
<path class="st1" d="M73,8c0.7-0.5,1.5-0.8,2.2-0.8c0.3,0,0.7,0.1,1,0.2s0.6,0.3,0.8,0.4v4.1h0c-1.4-0.6-2.4-1.1-3.1-1.3
	c-0.7-0.2-1.2-0.3-1.7-0.3c-0.3,0-0.5,0-0.7,0.1c-0.2,0.1-0.4,0.1-0.5,0.3v9.9c0,0.4,0,0.7,0.1,0.9c0.1,0.2,0.2,0.5,0.4,0.7
	c0.2,0.2,0.5,0.6,0.9,1v0h-7.6v0c0.6-0.6,0.9-1,1.1-1.3c0.2-0.3,0.3-0.8,0.3-1.3V10.4c0-0.4,0-0.7-0.1-1c-0.1-0.3-0.2-0.5-0.4-0.8
	c-0.2-0.3-0.5-0.6-0.9-1v0h6.1l0.1,2.9C71.6,9.4,72.3,8.5,73,8z"/>
<path class="st1" d="M85.8,23.2L85.8,23.2l-7.5,0v0c0.6-0.6,0.9-1,1.1-1.3c0.2-0.3,0.3-0.8,0.3-1.3V10.4c0-0.4,0-0.7-0.1-1
	c-0.1-0.3-0.2-0.5-0.4-0.8c-0.2-0.3-0.5-0.6-0.9-1v0h6.2v12.9c0,0.5,0.1,1,0.3,1.3C84.9,22.2,85.3,22.6,85.8,23.2z"/>
<path class="st1" d="M94.7,23.6c-1.6,0-3-0.3-4.2-1c-1.1-0.7-2-1.7-2.6-2.9c-0.6-1.2-0.9-2.6-0.9-4.2c0-1.6,0.3-3,0.9-4.2
	c0.6-1.2,1.5-2.2,2.6-2.9c1.2-0.7,2.5-1.1,4.1-1.1c1.4,0,2.6,0.3,3.7,0.8c1,0.6,1.8,1.3,2.3,2.3c0.5,1,0.8,2.1,0.8,3.4
	c0,0.3,0,0.6-0.1,0.8h-9.5v0.1c0,2,0.4,3.6,1.1,4.6c0.7,1.1,1.9,1.6,3.6,1.6c1.1,0,2-0.2,2.8-0.6c0.8-0.4,1.4-1,1.9-1.8l0.1,0
	c-0.3,1.5-1,2.8-2.2,3.7C98,23.1,96.6,23.6,94.7,23.6z M91.9,12.5v1.9h4.9v-2.8c0-1.4-0.2-2.5-0.5-3.1c-0.3-0.7-0.9-1-1.8-1
	c-1,0-1.7,0.4-2,1.3C92.1,9.6,91.9,10.8,91.9,12.5z"/>
<path class="st1" d="M119.8,23.2L119.8,23.2l-7.4,0v0c0.5-0.6,0.8-1,1-1.3c0.2-0.3,0.2-0.8,0.2-1.3v-8.9c0-0.8-0.2-1.4-0.5-1.8
	c-0.3-0.4-0.9-0.7-1.7-0.7c-0.9,0-1.6,0.3-2.3,0.9v10.5c0,0.5,0.1,1,0.2,1.3c0.2,0.3,0.5,0.8,1,1.3v0H103v0c0.6-0.6,0.9-1,1.1-1.3
	c0.2-0.3,0.3-0.8,0.3-1.3V10.4c0-0.4,0-0.7-0.1-1c-0.1-0.3-0.2-0.5-0.4-0.8c-0.2-0.3-0.5-0.6-0.9-1v0h6.1l0.1,2.2
	c0.4-0.8,1.1-1.4,1.8-1.9c0.8-0.5,1.7-0.7,2.8-0.7c1.5,0,2.7,0.4,3.5,1.2c0.8,0.8,1.2,2,1.2,3.5v8.5c0,0.5,0.1,1,0.3,1.3
	C118.9,22.2,119.3,22.6,119.8,23.2z"/>
<path class="st1" d="M131.3,8.6c-0.6-0.4-1.1-0.7-1.5-0.9c-0.4-0.2-0.8-0.2-1.1-0.2c-0.7,0-1.2,0.2-1.6,0.6c-0.4,0.4-0.7,1.1-0.9,2
	c-0.2,0.9-0.3,2.2-0.3,3.8c0,1.6,0.1,3,0.4,4c0.3,1,0.7,1.8,1.3,2.3c0.6,0.5,1.5,0.8,2.6,0.8c2,0,3.4-0.8,4.2-2.3l0,0.1
	c-0.2,1-0.5,1.9-1.1,2.6c-0.6,0.7-1.3,1.3-2.1,1.7c-0.9,0.4-1.9,0.6-3,0.6c-1.5,0-2.8-0.4-3.9-1.1c-1.1-0.7-1.9-1.7-2.4-2.9
	c-0.5-1.2-0.8-2.6-0.8-4.2c0-1.6,0.3-3,0.9-4.3c0.6-1.2,1.5-2.2,2.7-2.9c1.2-0.7,2.7-1,4.4-1c0.7,0,1.5,0.1,2.4,0.2
	c0.9,0.1,1.8,0.3,2.6,0.4l0.1,2.8h0C132.8,9.7,131.9,9,131.3,8.6z"/>
<path class="st1" d="M143.2,23.6c-1.6,0-3-0.3-4.2-1c-1.1-0.7-2-1.7-2.6-2.9c-0.6-1.2-0.9-2.6-0.9-4.2c0-1.6,0.3-3,0.9-4.2
	s1.5-2.2,2.6-2.9c1.2-0.7,2.5-1.1,4.1-1.1c1.4,0,2.6,0.3,3.7,0.8c1,0.6,1.8,1.3,2.3,2.3c0.5,1,0.8,2.1,0.8,3.4c0,0.3,0,0.6-0.1,0.8
	h-9.5v0.1c0,2,0.4,3.6,1.1,4.6c0.7,1.1,1.9,1.6,3.6,1.6c1.1,0,2-0.2,2.8-0.6c0.8-0.4,1.4-1,1.9-1.8l0.1,0c-0.3,1.5-1,2.8-2.2,3.7
	C146.5,23.1,145.1,23.6,143.2,23.6z M140.4,12.5v1.9h4.9v-2.8c0-1.4-0.2-2.5-0.5-3.1c-0.3-0.7-0.9-1-1.8-1c-1,0-1.7,0.4-2,1.3
	C140.6,9.6,140.4,10.8,140.4,12.5z"/>
<g>
	<path class="st0" d="M82,5.3c1.5,0,2.7-1.2,2.7-2.6C84.7,1.2,83.5,0,82,0c-1.5,0-2.7,1.2-2.7,2.6C79.3,4.1,80.5,5.3,82,5.3"/>
</g>
</svg>
